<?xml version="1.0" encoding="UTF-8"?>
<svg width="22px" height="16px" viewBox="0 0 22 16" version="1.1" xmlns="http://www.w3.org/2000/svg" xmlns:xlink="http://www.w3.org/1999/xlink">
    <!-- Generator: Sketch 49.3 (51167) - http://www.bohemiancoding.com/sketch -->
    <title>ShapeIcon-Envelope-Deactivated</title>
    <desc>Created with Sketch.</desc>
    <defs></defs>
    <g id="Specs" stroke="none" stroke-width="1" fill="none" fill-rule="evenodd">
        <g id="HIFI-Desktop-1440px-1a" transform="translate(-670.000000, -483.000000)" fill="#1784EB" fill-rule="nonzero" stroke="#1784EB" stroke-width="0.35">
            <g id="Group-3" transform="translate(671.000000, 446.000000)">
                <path d="M18.2421875,38 L1.7578125,38 C0.790546875,38 0,38.7870703 0,39.7578125 L0,50.3046875 C0,51.2757813 0.791054688,52.0625 1.7578125,52.0625 L18.2421875,52.0625 C19.2094531,52.0625 20,51.2754297 20,50.3046875 L20,39.7578125 C20,38.7868359 19.2090625,38 18.2421875,38 Z M17.9722656,39.171875 C17.4039453,39.7420703 10.7283203,46.4394531 10.4540625,46.7146094 C10.225,46.944375 9.77511719,46.9445312 9.5459375,46.7146094 L2.02773438,39.171875 L17.9722656,39.171875 Z M1.171875,50.0892578 L1.171875,39.9732422 L6.21347656,45.03125 L1.171875,50.0892578 Z M2.02773438,50.890625 L7.04078125,45.86125 L8.71597656,47.5419141 C9.40246094,48.230625 10.5978125,48.2303516 11.2840625,47.5419141 L12.9592578,45.8612891 L17.9722656,50.890625 L2.02773438,50.890625 Z M18.828125,50.0892578 L13.7865234,45.03125 L18.828125,39.9732422 L18.828125,50.0892578 Z" id="Shape"></path>
            </g>
        </g>
    </g>
</svg>