<svg id="Layer_1" enable-background="new 0 0 512.053 512.053" height="512" viewBox="0 0 512.053 512.053" width="512" xmlns="http://www.w3.org/2000/svg"><g><path d="m512.053 340.831c0-8.284-6.716-15-15-15h-13.01v-187.941l3.499 2.818c2.772 2.233 6.097 3.319 9.399 3.318 4.384 0 8.729-1.912 11.691-5.591 5.196-6.451 4.18-15.895-2.272-21.091l-141.533-114c-5.685-4.579-13.84-4.4-19.319.422l-90.213 79.395-99.094-79.816c-5.648-4.55-13.742-4.406-19.225.339l-131.738 114c-6.265 5.421-6.948 14.894-1.527 21.158 2.967 3.428 7.146 5.185 11.35 5.185 3.478 0 6.973-1.203 9.809-3.657l3.173-2.746v188.208h-12.989c-8.284 0-15 6.716-15 15l-.054 156.194c0 8.284 6.716 15 15 15h482.002c8.284 0 15-6.716 15-14.999zm-30 15v32.339c-3.764 1.565-7.444 3.219-11.055 4.846-12.014 5.414-23.36 10.527-34.244 10.527-6.966 0-14.897-4.058-23.293-8.354-10.67-5.459-22.763-11.646-36.957-11.646-14.195 0-26.288 6.188-36.958 11.646-8.396 4.296-16.327 8.354-23.293 8.354s-14.896-4.058-23.293-8.354c-10.67-5.459-22.763-11.646-36.958-11.646s-26.288 6.188-36.957 11.646c-8.396 4.296-16.327 8.354-23.293 8.354s-14.896-4.058-23.293-8.354c-10.67-5.459-22.763-11.646-36.958-11.646s-26.288 6.188-36.958 11.646c-8.396 4.296-16.327 8.354-23.293 8.354-10.884 0-22.23-5.113-34.244-10.527-3.578-1.613-7.223-3.252-10.952-4.804v-32.381zm-317.022-30h-30.978v-84.805h30.978zm213 0h-30.978v-84.805h30.978zm-22.185-291.199 98.197 79.094v212.105h-46.012v-99.805c0-8.284-6.716-15-15-15h-60.978c-8.284 0-15 6.716-15 15v99.805h-46.012v-216.565zm-298.055 77.248 89.346-77.316 93.905 75.638v215.629h-46.011v-99.805c0-8.284-6.716-15-15-15h-60.978c-8.284 0-15 6.716-15 15v99.805h-46.011s-.095-213.083-.251-213.951zm424.212 370.146h-452.003v-61.064c13.38 6.022 28.474 12.582 45.25 12.582 14.195 0 26.288-6.188 36.958-11.646 8.396-4.296 16.327-8.354 23.293-8.354s14.896 4.058 23.293 8.354c10.67 5.459 22.763 11.646 36.958 11.646s26.288-6.188 36.957-11.646c8.396-4.296 16.327-8.354 23.293-8.354s14.896 4.058 23.293 8.354c10.67 5.459 22.763 11.646 36.958 11.646s26.288-6.188 36.958-11.646c8.396-4.296 16.327-8.354 23.293-8.354s14.896 4.058 23.292 8.354c10.67 5.459 22.763 11.646 36.958 11.646 16.777 0 31.87-6.561 45.25-12.582z"/><path d="m362.542 134.026c8.262 0 15-6.738 15-15s-6.738-15-15-15c-8.261 0-15 6.739-15 15 0 8.262 6.739 15 15 15z"/><path d="m149.542 134.026c8.262 0 15-6.738 15-15s-6.738-15-15-15-15 6.739-15 15c0 8.262 6.738 15 15 15z"/></g></svg>