<svg id="Layer_1" data-name="Layer 1" xmlns="http://www.w3.org/2000/svg" viewBox="0 0 113.95 18.72"><defs><style>.cls-1{isolation:isolate;}.cls-2{fill:#4a4a4a;}</style></defs><title>Signature-partner</title><g id="Page-1"><g id="Card-Logo"><g id="Group-2"><g id="Branding"><g id="Logo"><g id="Signature-Partner" class="cls-1"><g class="cls-1"><path class="cls-2" d="M17.5,2.25a3.08,3.08,0,0,1-.2,1,4.39,4.39,0,0,1-.57,1.06,5.73,5.73,0,0,1-.92,1,7.12,7.12,0,0,1-1.27.88A8.43,8.43,0,0,1,13,6.91a9.66,9.66,0,0,1-1.87.4c-.28.51-.57,1-.86,1.51s-.62,1-1,1.42a11.83,11.83,0,0,1-1.06,1.25,7.36,7.36,0,0,1-1.19,1,5.09,5.09,0,0,1-1.37.66,5,5,0,0,1-1.57.24,4.29,4.29,0,0,1-1.33-.2,3.59,3.59,0,0,1-1.14-.57,3.06,3.06,0,0,1-.79-.93,2.54,2.54,0,0,1-.3-1.25A2.86,2.86,0,0,1,.81,9.11a2.74,2.74,0,0,1,.73-.94,3.27,3.27,0,0,1,1-.56,3.93,3.93,0,0,1,1.18-.18,4.68,4.68,0,0,1,.91.09,5,5,0,0,1,.86.25,4.53,4.53,0,0,1,.76.39,4.08,4.08,0,0,1,.63.5l-.23.25a3.19,3.19,0,0,0-.44-.34,3,3,0,0,0-.59-.29A3.48,3.48,0,0,0,5,8.07,4.64,4.64,0,0,0,4.1,8a2.87,2.87,0,0,0-1,.18,2.65,2.65,0,0,0-.88.5,2.82,2.82,0,0,0-.62.82,2.53,2.53,0,0,0-.23,1.09,2.26,2.26,0,0,0,.2.94,2.17,2.17,0,0,0,.56.75,2.68,2.68,0,0,0,.86.49,3.21,3.21,0,0,0,1.1.18,3.88,3.88,0,0,0,1.29-.21,4.55,4.55,0,0,0,1.13-.6,5.62,5.62,0,0,0,1-.9,10.27,10.27,0,0,0,.9-1.14c.29-.42.56-.85.82-1.31s.52-.93.77-1.41H9.78a9.51,9.51,0,0,1-2.36-.27,6.26,6.26,0,0,1-1.79-.73A3.61,3.61,0,0,1,4.5,5.28a2.46,2.46,0,0,1-.4-1.36,2.9,2.9,0,0,1,.28-1.28,2.78,2.78,0,0,1,.77-.93,3.48,3.48,0,0,1,1.12-.57A5,5,0,0,1,7.63,1a6.72,6.72,0,0,1,1.14.1,6.4,6.4,0,0,1,.92.25,5,5,0,0,1,.73.33A4.43,4.43,0,0,1,11,2a3,3,0,0,1,.35.29l.16.16-.26.23L11,2.46A5.39,5.39,0,0,0,10.35,2a5.49,5.49,0,0,0-1-.42,3.77,3.77,0,0,0-1.25-.19,4.35,4.35,0,0,0-1.28.19,3.44,3.44,0,0,0-1,.55A2.49,2.49,0,0,0,5.2,3,2.3,2.3,0,0,0,5,4a2.08,2.08,0,0,0,.37,1.21,3.08,3.08,0,0,0,1,.93,5.38,5.38,0,0,0,1.54.6A8.33,8.33,0,0,0,9.82,7h.38c.27-.51.54-1,.8-1.53s.55-1,.83-1.45.57-.89.87-1.29a7.34,7.34,0,0,1,1-1A4.31,4.31,0,0,1,14.75,1,3.22,3.22,0,0,1,16,.76a2.08,2.08,0,0,1,.55.07,1.3,1.3,0,0,1,.48.25,1.37,1.37,0,0,1,.35.46A1.67,1.67,0,0,1,17.5,2.25ZM16.16,1.18a2.06,2.06,0,0,0-.94.22,3.19,3.19,0,0,0-.85.61,6.21,6.21,0,0,0-.79.93c-.26.36-.51.75-.76,1.17s-.49.88-.74,1.35l-.77,1.43a9,9,0,0,0,1.85-.43,7.92,7.92,0,0,0,1.46-.69,5.83,5.83,0,0,0,1.11-.86A5.37,5.37,0,0,0,16.51,4,4.32,4.32,0,0,0,17,3.11a2.62,2.62,0,0,0,.14-.77,2.24,2.24,0,0,0-.05-.46,1,1,0,0,0-.16-.36.71.71,0,0,0-.29-.25A1,1,0,0,0,16.16,1.18Z" transform="translate(-0.53 -0.41)"/><path class="cls-2" d="M16.73,6.8c-.06.14-.16.32-.28.54l-.4.73-.43.82c-.14.29-.27.57-.39.85a6.09,6.09,0,0,0-.28.77,1.92,1.92,0,0,0-.11.61.43.43,0,0,0,.09.31.41.41,0,0,0,.27.08,1.08,1.08,0,0,0,.62-.21,3.79,3.79,0,0,0,.61-.55A8.8,8.8,0,0,0,17,10l.57-.88.29.21c-.16.28-.33.56-.52.87a6.79,6.79,0,0,1-.63.86,3.64,3.64,0,0,1-.78.65,1.75,1.75,0,0,1-.92.26,1,1,0,0,1-.72-.28,1.09,1.09,0,0,1-.25-.73,2.79,2.79,0,0,1,.24-1.09,8.3,8.3,0,0,1,.61-1.13,12,12,0,0,1,.79-1.08l.78-.93ZM18.2,5.07a.79.79,0,0,1-.08.32,1.38,1.38,0,0,1-.2.31,1.09,1.09,0,0,1-.27.21.58.58,0,0,1-.3.09.22.22,0,0,1-.2-.1.36.36,0,0,1-.07-.24,1.11,1.11,0,0,1,0-.29A1.24,1.24,0,0,1,17.27,5a.92.92,0,0,1,.22-.26.49.49,0,0,1,.31-.11.35.35,0,0,1,.28.13A.37.37,0,0,1,18.2,5.07Z" transform="translate(-0.53 -0.41)"/><path class="cls-2" d="M20.57,11.73a4.27,4.27,0,0,1-.84.45,2.34,2.34,0,0,1-.83.16,2.06,2.06,0,0,1-.6-.08,1.45,1.45,0,0,1-.53-.29,1.39,1.39,0,0,1-.4-.52,2,2,0,0,1-.15-.82,3.05,3.05,0,0,1,.21-1.12,4.34,4.34,0,0,1,.56-1,5,5,0,0,1,.81-.84A5.66,5.66,0,0,1,19.73,7a4.4,4.4,0,0,1,1-.41,2.83,2.83,0,0,1,.86-.15,2.13,2.13,0,0,1,.66.08,1.56,1.56,0,0,1,.45.2A1.12,1.12,0,0,1,23,7l.18.27.42-.55.26.17-.12.24c-.09.16-.2.37-.33.64l-.48.93-.56,1.14-.59,1.24-.58,1.26c.48-.27.89-.53,1.25-.78a9.92,9.92,0,0,0,1-.76,7.24,7.24,0,0,0,.77-.8,8.93,8.93,0,0,0,.66-.89l.29.21a8.45,8.45,0,0,1-.67.95,8.72,8.72,0,0,1-.86.86,12,12,0,0,1-1.14.87c-.43.3-.95.63-1.55,1a24,24,0,0,1-1.43,3,12.43,12.43,0,0,1-1.3,1.89,4.26,4.26,0,0,1-1.14,1,2,2,0,0,1-1,.28,1.67,1.67,0,0,1-.37,0,1,1,0,0,1-.37-.17.87.87,0,0,1-.28-.34,1.16,1.16,0,0,1-.12-.56,2.73,2.73,0,0,1,.35-1.3,5.16,5.16,0,0,1,1-1.27,11.88,11.88,0,0,1,1.61-1.26,24.56,24.56,0,0,1,2.17-1.26l.28-.63C20.42,12.08,20.5,11.9,20.57,11.73Zm-4.51,7a1.14,1.14,0,0,0,.62-.22,3.91,3.91,0,0,0,.65-.6A8.39,8.39,0,0,0,18,17c.21-.33.42-.69.63-1.07s.41-.76.6-1.16.37-.78.54-1.16a12.45,12.45,0,0,0-2,1.27,10.57,10.57,0,0,0-1.35,1.26,5.44,5.44,0,0,0-.76,1.09,1.86,1.86,0,0,0-.24.74.91.91,0,0,0,.14.52A.58.58,0,0,0,16.06,18.73ZM21,10.88l.41-.79.43-.77c.15-.26.31-.53.48-.8s.36-.55.57-.84a.75.75,0,0,0-.08-.24.76.76,0,0,0-.17-.23A1.12,1.12,0,0,0,22.34,7,1,1,0,0,0,21.93,7a2.85,2.85,0,0,0-.61.07,4,4,0,0,0-.71.24,4.81,4.81,0,0,0-.76.46,5.16,5.16,0,0,0-.76.73,5.4,5.4,0,0,0-.82,1.28A2.71,2.71,0,0,0,18,10.9a1.07,1.07,0,0,0,.25.77,1,1,0,0,0,.71.26,2.1,2.1,0,0,0,1-.29A5.45,5.45,0,0,0,21,10.88Z" transform="translate(-0.53 -0.41)"/><path class="cls-2" d="M31.34,8a2.08,2.08,0,0,1-.12.68,5.15,5.15,0,0,1-.3.69c-.12.24-.25.46-.38.69s-.26.44-.38.65a4.69,4.69,0,0,0-.3.59,1.38,1.38,0,0,0-.12.52.34.34,0,0,0,.08.25.27.27,0,0,0,.17.06,1.16,1.16,0,0,0,.67-.29,6.45,6.45,0,0,0,.74-.74c.25-.3.51-.62.76-1s.47-.68.68-1l.28.21-.23.38c-.11.18-.24.39-.41.63s-.34.48-.54.74a5.47,5.47,0,0,1-.64.71,3.81,3.81,0,0,1-.71.54,1.45,1.45,0,0,1-.73.21,1.12,1.12,0,0,1-.38-.07.79.79,0,0,1-.3-.2A1,1,0,0,1,29,12a1,1,0,0,1-.07-.36,1.91,1.91,0,0,1,.14-.66,5.86,5.86,0,0,1,.34-.73c.13-.25.28-.5.44-.75l.45-.72c.13-.23.25-.44.34-.64a1.27,1.27,0,0,0,.14-.5.67.67,0,0,0-.13-.41A.44.44,0,0,0,30.27,7a1.06,1.06,0,0,0-.57.2,4.45,4.45,0,0,0-.74.61,11.54,11.54,0,0,0-.89,1c-.32.39-.66.83-1,1.32l-.62.83-.27.35-.26.36-.26.33a2.27,2.27,0,0,1-.21.28L24.73,12l.91-1.26c.13-.17.26-.36.4-.57s.27-.41.4-.63.26-.43.38-.65l.34-.64a5,5,0,0,0,.31-.78A1.75,1.75,0,0,0,27.55,7c0-.14,0-.24-.07-.28a.38.38,0,0,0-.22-.07.55.55,0,0,0-.34.16,2.89,2.89,0,0,0-.4.39,6.58,6.58,0,0,0-.41.53c-.13.21-.27.4-.39.6s-.24.39-.35.57-.2.32-.28.42l-.28-.21.73-1.15a8,8,0,0,1,.62-.89,3.28,3.28,0,0,1,.59-.59,1.05,1.05,0,0,1,.6-.2.72.72,0,0,1,.33.07.71.71,0,0,1,.28.21.91.91,0,0,1,.2.33,1.52,1.52,0,0,1,.07.45,2,2,0,0,1-.05.42,5.75,5.75,0,0,1,.64-.55,4.09,4.09,0,0,1,.55-.35,1.68,1.68,0,0,1,.46-.18,1.42,1.42,0,0,1,.38-.06,1.16,1.16,0,0,1,.34.06.84.84,0,0,1,.37.2,1.08,1.08,0,0,1,.29.41A1.47,1.47,0,0,1,31.34,8Z" transform="translate(-0.53 -0.41)"/><path class="cls-2" d="M39.05,6.8l-.29.54c-.12.21-.25.46-.39.72s-.29.54-.43.82-.27.57-.39.84-.21.53-.29.78a2.26,2.26,0,0,0-.11.61c0,.17,0,.27.1.32a.39.39,0,0,0,.25.08,1,1,0,0,0,.46-.13,2.49,2.49,0,0,0,.47-.35,3.45,3.45,0,0,0,.45-.48,5,5,0,0,0,.41-.53c.13-.18.25-.35.35-.52s.19-.3.27-.41l.28.21c-.09.17-.2.35-.31.54l-.4.59c-.14.19-.3.38-.46.56a4.81,4.81,0,0,1-.53.49,2.61,2.61,0,0,1-.58.33,1.58,1.58,0,0,1-.63.13.85.85,0,0,1-.69-.28,1.19,1.19,0,0,1-.21-.73v-.14a.79.79,0,0,1,0-.17,6.9,6.9,0,0,1-.75.82A3.82,3.82,0,0,1,35,12a2.61,2.61,0,0,1-.64.26,2.44,2.44,0,0,1-.59.07,1.45,1.45,0,0,1-.55-.1,1.4,1.4,0,0,1-.47-.28,1.49,1.49,0,0,1-.31-.46,1.83,1.83,0,0,1-.11-.64,3.21,3.21,0,0,1,.2-1,4.33,4.33,0,0,1,.71-1.24,5.53,5.53,0,0,1,.89-1A5.34,5.34,0,0,1,35,7a3.48,3.48,0,0,1,.86-.34,2.89,2.89,0,0,1,.73-.1,2,2,0,0,1,1.08.23,1,1,0,0,1,.45.73q.15-.2.33-.39l.35-.39Zm-2.4,3,.25-.41.31-.53.32-.52c.11-.16.2-.31.27-.42a2.3,2.3,0,0,0,0-.23,1,1,0,0,0-.11-.31.8.8,0,0,0-.27-.28A1,1,0,0,0,36.88,7a2.28,2.28,0,0,0-.54.08,2.9,2.9,0,0,0-.64.25,3.81,3.81,0,0,0-.7.46,4.89,4.89,0,0,0-.72.72,5.55,5.55,0,0,0-.83,1.3,2.86,2.86,0,0,0-.29,1.18,1,1,0,0,0,.2.68.69.69,0,0,0,.58.25,1.85,1.85,0,0,0,.8-.19,3.39,3.39,0,0,0,.71-.5,6.88,6.88,0,0,0,.62-.68C36.27,10.26,36.46,10,36.65,9.77Z" transform="translate(-0.53 -0.41)"/><path class="cls-2" d="M41.49,5.55l.28-.46c.13-.21.29-.46.47-.72s.37-.54.58-.8a6.24,6.24,0,0,1,.63-.69l.35.21c-.23.37-.46.77-.69,1.18s-.47.84-.7,1.28H45L44.8,6H42.2c-.23.47-.45.94-.66,1.4s-.38.91-.54,1.33a9.83,9.83,0,0,0-.37,1.18,4.11,4.11,0,0,0-.13,1,1,1,0,0,0,.23.73.81.81,0,0,0,.58.22,1.29,1.29,0,0,0,.63-.18,3.68,3.68,0,0,0,.63-.47,5.62,5.62,0,0,0,.58-.61c.19-.23.35-.44.49-.64s.27-.37.36-.52l.17-.27.29.21c-.18.31-.39.63-.62,1a7.62,7.62,0,0,1-.76.94,4.12,4.12,0,0,1-.91.72,2.08,2.08,0,0,1-1.06.28,1.44,1.44,0,0,1-.61-.12,1.3,1.3,0,0,1-.45-.35,1.54,1.54,0,0,1-.26-.53,2.29,2.29,0,0,1-.09-.66,4.09,4.09,0,0,1,.07-.67,9.25,9.25,0,0,1,.25-1q.18-.58.48-1.32A15.07,15.07,0,0,1,41.27,6H40l.15-.41Z" transform="translate(-0.53 -0.41)"/><path class="cls-2" d="M47.81,10.3c-.24.28-.47.54-.71.77a5.45,5.45,0,0,1-.7.61,3.07,3.07,0,0,1-.69.4,1.72,1.72,0,0,1-.69.15,1.33,1.33,0,0,1-.54-.11,1.12,1.12,0,0,1-.41-.3,1.17,1.17,0,0,1-.27-.46,1.81,1.81,0,0,1-.1-.63,2.89,2.89,0,0,1,.24-1.11,7,7,0,0,1,.6-1.1,9.9,9.9,0,0,1,.81-1c.29-.32.57-.61.84-.86l.33.24c-.18.27-.39.59-.63.93s-.45.71-.65,1.09A7.91,7.91,0,0,0,44.72,10a3,3,0,0,0-.21,1,1.2,1.2,0,0,0,.12.55.47.47,0,0,0,.46.22,1.6,1.6,0,0,0,.83-.29,6.16,6.16,0,0,0,.92-.78c.31-.32.63-.67.95-1.07s.61-.8.89-1.21.54-.79.77-1.16.42-.69.57-1l.57.28c-.31.6-.6,1.15-.88,1.66s-.52,1-.74,1.39-.39.76-.51,1.06a1.92,1.92,0,0,0-.19.72.34.34,0,0,0,0,.18.16.16,0,0,0,.15.07,1,1,0,0,0,.64-.25,5.14,5.14,0,0,0,.7-.65,10.23,10.23,0,0,0,.7-.85c.22-.31.43-.6.61-.87l.28.21-.19.32c-.1.17-.23.35-.37.56s-.31.43-.5.66a5.89,5.89,0,0,1-.6.62,2.77,2.77,0,0,1-.64.47,1.34,1.34,0,0,1-.67.19,1,1,0,0,1-.36-.07.77.77,0,0,1-.27-.19,1,1,0,0,1-.17-.27,1,1,0,0,1-.07-.33,1.9,1.9,0,0,1,.07-.45A4.67,4.67,0,0,1,47.81,10.3Z" transform="translate(-0.53 -0.41)"/><path class="cls-2" d="M56,9.3c-.08.12-.17.27-.28.47s-.23.41-.37.63-.3.46-.46.69a4.35,4.35,0,0,1-.56.64,3.2,3.2,0,0,1-.65.46,1.66,1.66,0,0,1-.75.18,1.42,1.42,0,0,1-.42-.07.81.81,0,0,1-.34-.21.89.89,0,0,1-.23-.34,1.22,1.22,0,0,1-.09-.49,2.35,2.35,0,0,1,.15-.8,5.87,5.87,0,0,1,.36-.81c.13-.26.27-.5.4-.72a4,4,0,0,0,.3-.52.86.86,0,0,0,.1-.33.29.29,0,0,0-.07-.18A1.29,1.29,0,0,0,53,7.75l-.2-.16a.55.55,0,0,1-.17-.2l-.4.63-.39.62-.41.66-.28-.21,1.67-2.62.23.12,0,.14a.57.57,0,0,0,0,.22.47.47,0,0,0,0,.17.27.27,0,0,0,.11.15l.49.44.27.24a.77.77,0,0,1,.1.15.61.61,0,0,1,0,.15,1.11,1.11,0,0,1,0,.23,2.46,2.46,0,0,1-.11.32c0,.12-.12.27-.2.44l-.33.59-.23.41c-.07.14-.14.28-.2.42a2.3,2.3,0,0,0-.14.42,1.44,1.44,0,0,0-.06.4.55.55,0,0,0,0,.24.33.33,0,0,0,.12.14.34.34,0,0,0,.15.06l.16,0a1,1,0,0,0,.51-.15,3,3,0,0,0,.5-.4,4.4,4.4,0,0,0,.48-.55l.44-.63.39-.61.32-.51Z" transform="translate(-0.53 -0.41)"/><path class="cls-2" d="M56.34,10.22c0,.06,0,.12,0,.19a1.09,1.09,0,0,0,0,.18,1.91,1.91,0,0,0,.08.54,1.26,1.26,0,0,0,.25.44,1.13,1.13,0,0,0,.4.31,1.3,1.3,0,0,0,.54.1,3.3,3.3,0,0,0,2-.69,7.8,7.8,0,0,0,1.9-2.2l.27.23a8.77,8.77,0,0,1-1,1.45,6.57,6.57,0,0,1-1.06,1,4,4,0,0,1-1,.53,3.12,3.12,0,0,1-1,.16,3.07,3.07,0,0,1-.71-.09,2.15,2.15,0,0,1-.69-.31,1.89,1.89,0,0,1-.53-.59,1.94,1.94,0,0,1-.2-.91,3.06,3.06,0,0,1,.2-1.13,4,4,0,0,1,.52-1,4.62,4.62,0,0,1,.73-.86,6.05,6.05,0,0,1,.84-.66,5.07,5.07,0,0,1,.83-.43,2.11,2.11,0,0,1,.72-.15,1.45,1.45,0,0,1,.41.06,1.15,1.15,0,0,1,.38.2,1.08,1.08,0,0,1,.28.35,1.21,1.21,0,0,1,.1.52,1.61,1.61,0,0,1-.19.78,2.71,2.71,0,0,1-.51.67,3.88,3.88,0,0,1-.74.56,6.6,6.6,0,0,1-.89.42,7.11,7.11,0,0,1-.93.27A4.8,4.8,0,0,1,56.34,10.22Zm.07-.34a4,4,0,0,0,1-.22,4.08,4.08,0,0,0,.84-.4,4.15,4.15,0,0,0,.69-.52,3.64,3.64,0,0,0,.5-.57,2.6,2.6,0,0,0,.31-.55,1.18,1.18,0,0,0,.11-.48.48.48,0,0,0-.11-.34.37.37,0,0,0-.27-.12,1.51,1.51,0,0,0-.77.25,3.72,3.72,0,0,0-.86.68,5.6,5.6,0,0,0-.81,1A5.86,5.86,0,0,0,56.41,9.88Z" transform="translate(-0.53 -0.41)"/><path class="cls-2" d="M80.69.59a6.21,6.21,0,0,0-1.06,1,3.88,3.88,0,0,1,.81.66A3.12,3.12,0,0,1,81,3a2.78,2.78,0,0,1,.29.73,2.68,2.68,0,0,1,.09.66,2.93,2.93,0,0,1-.29,1.33,2.94,2.94,0,0,1-.76.94,3.22,3.22,0,0,1-1.09.56,4.49,4.49,0,0,1-1.27.19,6.46,6.46,0,0,1-1.45-.17c-.21.46-.45.93-.71,1.38a12.75,12.75,0,0,1-.83,1.32,9.2,9.2,0,0,1-1,1.17,6.27,6.27,0,0,1-1.13.94,5.44,5.44,0,0,1-1.31.62,4.91,4.91,0,0,1-1.5.23,4.17,4.17,0,0,1-1.43-.25,3.16,3.16,0,0,1-1.87-1.91,4.29,4.29,0,0,1-.27-1.58,6.19,6.19,0,0,1,.4-2.22,7.75,7.75,0,0,1,1.08-2,9.3,9.3,0,0,1,1.63-1.69,10.78,10.78,0,0,1,2-1.3,10.63,10.63,0,0,1,2.27-.83,9.62,9.62,0,0,1,2.37-.3,8.25,8.25,0,0,1,1.66.15,6.55,6.55,0,0,1,1.27.4,8.27,8.27,0,0,1,.66-.51,4.88,4.88,0,0,1,.74-.42Zm-4.86,6c.24-.5.47-1,.71-1.44s.47-.9.71-1.31.5-.8.76-1.17a9.07,9.07,0,0,1,.84-1,6.11,6.11,0,0,0-1.12-.3,8.71,8.71,0,0,0-1.29-.09,7.62,7.62,0,0,0-1.85.23,8.88,8.88,0,0,0-1.75.62,10.25,10.25,0,0,0-1.6.93A12.44,12.44,0,0,0,69.82,4.2a13.37,13.37,0,0,0-1.18,1.33,9.28,9.28,0,0,0-.89,1.39,7,7,0,0,0-.57,1.39,4.38,4.38,0,0,0-.2,1.3,2.8,2.8,0,0,0,.22,1.12,2.54,2.54,0,0,0,.6.9,2.71,2.71,0,0,0,.92.6,3,3,0,0,0,1.18.22,4,4,0,0,0,1.78-.39A5.05,5.05,0,0,0,73.14,11a9.78,9.78,0,0,0,1.27-1.74c.41-.68.81-1.43,1.23-2.26a7.15,7.15,0,0,1-1.51-.83l.13-.21.76.35Q75.41,6.43,75.83,6.56Zm4.69-2.65a2.12,2.12,0,0,0-.31-1.18,2.41,2.41,0,0,0-.83-.82A14.34,14.34,0,0,0,78,4.05c-.43.82-.87,1.72-1.33,2.72a3.47,3.47,0,0,0,.45.06l.46,0a3,3,0,0,0,1.12-.21,2.86,2.86,0,0,0,.93-.6,2.89,2.89,0,0,0,.63-.92A2.94,2.94,0,0,0,80.52,3.91Z" transform="translate(-0.53 -0.41)"/><path class="cls-2" d="M86.06,6.8c-.06.14-.16.32-.28.54l-.4.72c-.14.26-.28.54-.42.82s-.28.57-.39.84a6.34,6.34,0,0,0-.29.78,2,2,0,0,0-.12.61.4.4,0,0,0,.1.32.42.42,0,0,0,.26.08,1,1,0,0,0,.46-.13,2.49,2.49,0,0,0,.47-.35,5.27,5.27,0,0,0,.45-.48c.14-.17.28-.35.41-.53s.24-.35.35-.52l.26-.41.28.21c-.09.17-.19.35-.31.54s-.25.39-.39.59-.3.38-.47.56a4.05,4.05,0,0,1-.53.49,2.4,2.4,0,0,1-.58.33,1.5,1.5,0,0,1-.62.13.83.83,0,0,1-.69-.28,1.13,1.13,0,0,1-.22-.73v-.14c0-.07,0-.12,0-.17a6.89,6.89,0,0,1-.74.82A4.67,4.67,0,0,1,82,12a2.61,2.61,0,0,1-.64.26,2.49,2.49,0,0,1-.59.07,1.5,1.5,0,0,1-.56-.1,1.36,1.36,0,0,1-.46-.28,1.33,1.33,0,0,1-.31-.46,1.62,1.62,0,0,1-.12-.64,3.21,3.21,0,0,1,.2-1,4.58,4.58,0,0,1,.71-1.24,6,6,0,0,1,.9-1A5.34,5.34,0,0,1,82,7a3.34,3.34,0,0,1,.86-.34,2.88,2.88,0,0,1,.72-.1,2,2,0,0,1,1.09.23,1,1,0,0,1,.44.73l.33-.39.35-.39Zm-2.4,3c.07-.11.16-.25.25-.41l.32-.53.32-.52c.1-.16.19-.31.27-.42s0-.12,0-.23a.94.94,0,0,0-.1-.31.75.75,0,0,0-.28-.28A1,1,0,0,0,83.9,7a2.28,2.28,0,0,0-.54.08,3,3,0,0,0-.65.25,3.76,3.76,0,0,0-.69.46,4.89,4.89,0,0,0-.72.72,6,6,0,0,0-.84,1.3,3,3,0,0,0-.29,1.18,1,1,0,0,0,.21.68.67.67,0,0,0,.57.25,1.86,1.86,0,0,0,.81-.19,3.33,3.33,0,0,0,.7-.5,5.89,5.89,0,0,0,.63-.68Z" transform="translate(-0.53 -0.41)"/><path class="cls-2" d="M91.85,9.3c-.08.12-.17.27-.28.47s-.23.41-.37.63-.29.46-.46.69a4.35,4.35,0,0,1-.56.64,3,3,0,0,1-.65.46,1.6,1.6,0,0,1-.75.18,1.41,1.41,0,0,1-.41-.07.84.84,0,0,1-.35-.21,1,1,0,0,1-.23-.34,1.22,1.22,0,0,1-.09-.49,2.15,2.15,0,0,1,.16-.8,7.32,7.32,0,0,1,.35-.81c.14-.26.27-.5.41-.72a5.24,5.24,0,0,0,.29-.52.71.71,0,0,0,.1-.33.24.24,0,0,0-.07-.18,1.17,1.17,0,0,0-.16-.15l-.21-.16a.67.67,0,0,1-.17-.2c-.13.21-.26.42-.4.63l-.39.62-.41.66-.28-.21,1.67-2.62.23.12,0,.14a.85.85,0,0,0,0,.22.47.47,0,0,0,0,.17.29.29,0,0,0,.12.15c.2.19.37.34.49.44s.2.18.26.24a.48.48,0,0,1,.1.15.61.61,0,0,1,0,.15,1.11,1.11,0,0,1,0,.23,2.46,2.46,0,0,1-.11.32c0,.12-.11.27-.2.44l-.32.59c-.08.13-.16.27-.23.41a4.11,4.11,0,0,0-.21.42,2.3,2.3,0,0,0-.14.42,1.44,1.44,0,0,0-.06.4.54.54,0,0,0,0,.24.26.26,0,0,0,.11.14.47.47,0,0,0,.15.06l.16,0a1,1,0,0,0,.51-.15,3,3,0,0,0,.5-.4,3.71,3.71,0,0,0,.48-.55l.44-.63.39-.61.32-.51Z" transform="translate(-0.53 -0.41)"/><path class="cls-2" d="M93.15,5.55c0-.08.14-.24.28-.46s.28-.46.46-.72.38-.54.59-.8a6.22,6.22,0,0,1,.62-.69l.35.21c-.22.37-.45.77-.68,1.18s-.47.84-.7,1.28h2.55L96.46,6h-2.6c-.24.47-.45.94-.66,1.4s-.39.91-.54,1.33a9.83,9.83,0,0,0-.37,1.18,4.11,4.11,0,0,0-.13,1,1,1,0,0,0,.23.73.81.81,0,0,0,.58.22,1.25,1.25,0,0,0,.62-.18,3,3,0,0,0,.63-.47,5.7,5.7,0,0,0,.59-.61c.18-.23.35-.44.49-.64l.36-.52.17-.27.29.21c-.19.31-.39.63-.62,1a7.62,7.62,0,0,1-.76.94,4.12,4.12,0,0,1-.91.72,2.08,2.08,0,0,1-1.06.28,1.49,1.49,0,0,1-.62-.12,1.36,1.36,0,0,1-.44-.35,1.56,1.56,0,0,1-.27-.53,2.29,2.29,0,0,1-.09-.66,4.34,4.34,0,0,1,.08-.67,9.25,9.25,0,0,1,.25-1q.18-.58.48-1.32A14.88,14.88,0,0,1,92.92,6h-1.3l.16-.41Z" transform="translate(-0.53 -0.41)"/><path class="cls-2" d="M102.35,8a2.08,2.08,0,0,1-.12.68,4.06,4.06,0,0,1-.29.69c-.12.24-.25.46-.39.69l-.38.65a3.56,3.56,0,0,0-.29.59,1.38,1.38,0,0,0-.12.52.3.3,0,0,0,.08.25.27.27,0,0,0,.17.06,1.11,1.11,0,0,0,.66-.29,5.78,5.78,0,0,0,.75-.74c.25-.3.5-.62.75-1s.48-.68.68-1l.28.21-.22.38c-.11.18-.25.39-.41.63s-.34.48-.54.74a5.54,5.54,0,0,1-.65.71,3.76,3.76,0,0,1-.7.54,1.48,1.48,0,0,1-.73.21,1.18,1.18,0,0,1-.39-.07.84.84,0,0,1-.29-.2A.81.81,0,0,1,100,12a.86.86,0,0,1-.07-.36,1.88,1.88,0,0,1,.13-.66c.1-.23.21-.48.34-.73s.29-.5.45-.75.31-.49.44-.72a5.81,5.81,0,0,0,.34-.64,1.12,1.12,0,0,0,.14-.5.61.61,0,0,0-.13-.41.41.41,0,0,0-.36-.16,1.09,1.09,0,0,0-.58.2,4.43,4.43,0,0,0-.73.61,11.54,11.54,0,0,0-.89,1c-.32.39-.67.83-1,1.32l-.63.83-.26.35-.27.36-.25.33-.21.28L95.74,12l.92-1.26q.2-.26.39-.57c.14-.2.27-.41.41-.63s.26-.43.38-.65.23-.43.33-.64a4.15,4.15,0,0,0,.31-.78A1.83,1.83,0,0,0,98.57,7a.37.37,0,0,0-.08-.28.34.34,0,0,0-.22-.07.55.55,0,0,0-.34.16,2.86,2.86,0,0,0-.39.39,4.89,4.89,0,0,0-.41.53l-.4.6-.35.57-.27.42-.28-.21.72-1.15a9.53,9.53,0,0,1,.63-.89,3.25,3.25,0,0,1,.58-.59,1.06,1.06,0,0,1,.61-.2.78.78,0,0,1,.33.07.71.71,0,0,1,.28.21,1.06,1.06,0,0,1,.19.33,1.25,1.25,0,0,1,.07.45,2,2,0,0,1,0,.42,5,5,0,0,1,.64-.55,4,4,0,0,1,.54-.35,1.81,1.81,0,0,1,.46-.18,1.43,1.43,0,0,1,.39-.06,1.16,1.16,0,0,1,.34.06.9.9,0,0,1,.37.2,1.2,1.2,0,0,1,.29.41A1.63,1.63,0,0,1,102.35,8Z" transform="translate(-0.53 -0.41)"/><path class="cls-2" d="M104.45,10.22a1.08,1.08,0,0,0,0,.19c0,.06,0,.12,0,.18a1.61,1.61,0,0,0,.09.54,1.11,1.11,0,0,0,.24.44,1.13,1.13,0,0,0,.4.31,1.33,1.33,0,0,0,.54.1,3.35,3.35,0,0,0,2-.69,8,8,0,0,0,1.89-2.2l.27.23a8.77,8.77,0,0,1-1,1.45,6.18,6.18,0,0,1-1.06,1,4,4,0,0,1-1,.53,3.12,3.12,0,0,1-1,.16,3.07,3.07,0,0,1-.71-.09,2.15,2.15,0,0,1-.69-.31,1.75,1.75,0,0,1-.52-.59,1.83,1.83,0,0,1-.21-.91,3.06,3.06,0,0,1,.2-1.13,4,4,0,0,1,.52-1,4.62,4.62,0,0,1,.73-.86,6.05,6.05,0,0,1,.84-.66,5.5,5.5,0,0,1,.83-.43,2.11,2.11,0,0,1,.72-.15,1.52,1.52,0,0,1,.42.06,1.2,1.2,0,0,1,.37.2,1,1,0,0,1,.28.35,1.21,1.21,0,0,1,.1.52,1.61,1.61,0,0,1-.19.78,2.71,2.71,0,0,1-.51.67,3.88,3.88,0,0,1-.74.56,7.1,7.1,0,0,1-.88.42,8.14,8.14,0,0,1-.93.27A4.91,4.91,0,0,1,104.45,10.22Zm.06-.34a3.89,3.89,0,0,0,1-.22,4.43,4.43,0,0,0,.85-.4,4.52,4.52,0,0,0,.68-.52,3.64,3.64,0,0,0,.5-.57,3.23,3.23,0,0,0,.32-.55,1.37,1.37,0,0,0,.11-.48.49.49,0,0,0-.12-.34.34.34,0,0,0-.27-.12,1.54,1.54,0,0,0-.77.25,3.94,3.94,0,0,0-.86.68,5.6,5.6,0,0,0-.81,1A5.86,5.86,0,0,0,104.51,9.88Z" transform="translate(-0.53 -0.41)"/><path class="cls-2" d="M114.48,9.3c-.07.12-.17.27-.27.47s-.23.41-.37.63-.3.46-.47.69a4.3,4.3,0,0,1-.55.64,3,3,0,0,1-.66.46,1.6,1.6,0,0,1-.75.18,1.41,1.41,0,0,1-.41-.07.75.75,0,0,1-.34-.21,1,1,0,0,1-.24-.34,1.23,1.23,0,0,1-.08-.49,2.35,2.35,0,0,1,.15-.8,7.32,7.32,0,0,1,.35-.81c.14-.26.27-.5.41-.72a5.72,5.72,0,0,0,.3-.52.82.82,0,0,0,.09-.33.24.24,0,0,0-.07-.18.78.78,0,0,0-.16-.15l-.2-.16a.7.7,0,0,1-.18-.2c-.13.21-.26.42-.4.63l-.39.62c-.14.22-.27.45-.4.66l-.29-.21,1.68-2.62.22.12a.82.82,0,0,1,0,.14.83.83,0,0,0,0,.22.88.88,0,0,0,0,.17.29.29,0,0,0,.12.15l.49.44a2.25,2.25,0,0,1,.26.24.35.35,0,0,1,.1.15.34.34,0,0,1,0,.15,1.11,1.11,0,0,1,0,.23,2.22,2.22,0,0,1-.1.32c0,.12-.12.27-.21.44s-.19.36-.32.59-.16.27-.23.41a2.67,2.67,0,0,0-.2.42,3.52,3.52,0,0,0-.15.42,1.41,1.41,0,0,0,0,.4.55.55,0,0,0,0,.24.4.4,0,0,0,.11.14l.15.06.16,0a1,1,0,0,0,.52-.15,3.5,3.5,0,0,0,.5-.4,4.36,4.36,0,0,0,.47-.55c.16-.21.3-.42.44-.63l.4-.61c.12-.2.22-.37.32-.51Z" transform="translate(-0.53 -0.41)"/></g></g></g></g></g></g></g></svg>